# xmcd CD database file
#
# Track frame offsets:
#	150
#	21006
#	45400
#	70045
#	95079
#	128631
#	156391
#	172507
#	198839
#	225941
#	260433
#
# Disc length: 3722 seconds
#
# Revision: 0
# Processed by: cddbd v1.5.1PL2 Copyright (c) Steve Scherf et al.
# Submitted via: CDex 1.51
#
DISCID=7c0e880b
DTITLE=Lionel Hampton and His Orchestra - The Great BIG BAND Collection
DYEAR=1900
DGENRE=Jazz
TTITLE0=Sleepy Time Down South
TTITLE1=Mr. PC
TTITLE2=Moments Notice
TTITLE3=Giant Steps
TTITLE4=Buddy's Cherokee
TTITLE5=Take The "A" Train
TTITLE6=I'll Never Be The Same
TTITLE7=Buddy's Rock
TTITLE8=My Funny Valentine
TTITLE9=Latin Silk
TTITLE10=Ain't Misbehavin'
EXTD=
EXTT0=
EXTT1=
EXTT2=
EXTT3=
EXTT4=
EXTT5=
EXTT6=
EXTT7=
EXTT8=
EXTT9=
EXTT10=
PLAYORDER=
